<svg width="88" height="89" viewBox="0 0 88 89" fill="none" xmlns="http://www.w3.org/2000/svg">
<g filter="url(#filter0_d_2382_5226)">
<path fill-rule="evenodd" clip-rule="evenodd" d="M9 81H79C81.7614 81 84 78.7614 84 76V6C84 3.23858 81.7614 1 79 1H9C6.23858 1 4 3.23858 4 6V76C4 78.7614 6.23858 81 9 81Z" fill="#FFFBEB"/>
<path d="M76.1465 1H10.5909L37.108 19.8889H51.3865L76.1465 1Z" fill="#E6E6E6"/>
<path fill-rule="evenodd" clip-rule="evenodd" d="M51.6867 20.9652V20.2768L49.6213 18.2114H47.5559L51.0344 22.2697L51.6867 20.9652Z" fill="#EFD000"/>
<path fill-rule="evenodd" clip-rule="evenodd" d="M51.0344 22.2697L47.5558 18.2114H45.4905L50.3372 23.664L51.0344 22.2697Z" fill="#0C1750"/>
<path fill-rule="evenodd" clip-rule="evenodd" d="M50.3373 23.664L45.4905 18.2114H37.9175L35.1637 20.9653L46.8675 30.6036L50.3373 23.664Z" fill="#781313"/>
<path fill-rule="evenodd" clip-rule="evenodd" d="M46.8675 30.6037L35.1637 20.9653L38.606 27.8498L42.0483 30.6037H46.8675Z" fill="#0C1750"/>
<path d="M42.0482 30.6036L38.606 27.8498L39.9829 30.6036H42.0482Z" fill="#EFD000"/>
<path d="M53.0635 18.2114H33.7867L39.9829 30.6036H46.8674L53.0635 18.2114Z" stroke="black" stroke-width="0.123922"/>
<path fill-rule="evenodd" clip-rule="evenodd" d="M44.1412 30.6036H39.8402L39.0166 37.0571L44.1412 30.6036Z" fill="#0C1750"/>
<path fill-rule="evenodd" clip-rule="evenodd" d="M47.633 35.4841L38.4062 41.8401L39.1232 36.2219L44.1422 30.6036H47.0102L47.633 35.4841Z" fill="#781313"/>
<path fill-rule="evenodd" clip-rule="evenodd" d="M47.6329 35.4829L48.0667 38.8819L37.9136 45.7012L38.4065 41.8387L47.6329 35.4829Z" fill="#0C1750"/>
<path fill-rule="evenodd" clip-rule="evenodd" d="M48.0649 38.8685L48.3598 41.1791L43.4252 44.2479L37.5996 48.1606L37.9746 45.2219L48.0649 38.8685Z" fill="#EFD000"/>
<path fill-rule="evenodd" clip-rule="evenodd" d="M48.3539 41.1329L48.8743 45.2111L37.1377 51.7801L37.6951 47.4127L48.3539 41.1329Z" fill="#0C1750"/>
<path fill-rule="evenodd" clip-rule="evenodd" d="M49.3563 48.9874L49.8279 52.683L36.0878 60.0071L36.5347 56.5054L49.3563 48.9874Z" fill="#0C1750"/>
<path fill-rule="evenodd" clip-rule="evenodd" d="M48.8265 44.8365L49.4404 49.6468L36.5277 56.5599L37.1929 51.3479L48.8265 44.8365Z" fill="#781313"/>
<path fill-rule="evenodd" clip-rule="evenodd" d="M49.8257 52.6655L50.4016 57.1782L35.5828 63.9643L36.1358 59.6312L49.8257 52.6655Z" fill="#EFD000"/>
<path fill-rule="evenodd" clip-rule="evenodd" d="M50.342 56.7111L50.9217 61.2538L35.1448 67.3966L35.6894 63.1293L50.342 56.7111Z" fill="#0C1750"/>
<path fill-rule="evenodd" clip-rule="evenodd" d="M50.827 60.512L51.7352 67.6283L34.319 73.8669L35.1468 67.3804L50.827 60.512Z" fill="#781313"/>
<path fill-rule="evenodd" clip-rule="evenodd" d="M52.0853 70.3719L52.5762 74.2182L33.5233 80.1017L34.028 76.1472L52.0853 70.3719Z" fill="#EFD000"/>
<path fill-rule="evenodd" clip-rule="evenodd" d="M51.6707 67.1222L52.1557 70.9228L33.9518 76.7449L34.3553 73.5832L51.6707 67.1222Z" fill="#0C1750"/>
<path fill-rule="evenodd" clip-rule="evenodd" d="M33.5465 79.3258L33.3481 80.861H53.424L52.572 74.1851L33.5465 79.3258Z" fill="#0C1750"/>
<path d="M33.3481 80.861L39.8402 30.6036H47.0102L53.424 80.861H33.3481Z" stroke="black" stroke-width="0.123922"/>
<path d="M76.2754 1.1C76.3306 1.1 76.3754 1.05523 76.3754 1C76.3754 0.944772 76.3306 0.9 76.2754 0.9V1.1ZM10.3461 1.1H76.2754V0.9H10.3461V1.1Z" fill="black"/>
<path d="M40.4899 16.5303L10.3793 1C10.3793 1 25.093 30.0646 27.0303 29.9899C28.9676 29.9152 40.4899 16.5303 40.4899 16.5303Z" fill="white" stroke="black" stroke-width="0.186364" stroke-linejoin="round"/>
<path d="M46.179 16.5303L76.2897 1C76.2897 1 61.5759 30.0646 59.6386 29.9899C57.7013 29.9152 46.179 16.5303 46.179 16.5303Z" fill="white" stroke="black" stroke-width="0.186364" stroke-linejoin="round"/>
</g>
<defs>
<filter id="filter0_d_2382_5226" x="0" y="0.900024" width="88" height="88.1" filterUnits="userSpaceOnUse" color-interpolation-filters="sRGB">
<feFlood flood-opacity="0" result="BackgroundImageFix"/>
<feColorMatrix in="SourceAlpha" type="matrix" values="0 0 0 0 0 0 0 0 0 0 0 0 0 0 0 0 0 0 127 0" result="hardAlpha"/>
<feOffset dy="4"/>
<feGaussianBlur stdDeviation="2"/>
<feComposite in2="hardAlpha" operator="out"/>
<feColorMatrix type="matrix" values="0 0 0 0 0 0 0 0 0 0 0 0 0 0 0 0 0 0 0.25 0"/>
<feBlend mode="normal" in2="BackgroundImageFix" result="effect1_dropShadow_2382_5226"/>
<feBlend mode="normal" in="SourceGraphic" in2="effect1_dropShadow_2382_5226" result="shape"/>
</filter>
</defs>
</svg>
