<svg width="21" height="28" viewBox="0 0 21 28" fill="none" xmlns="http://www.w3.org/2000/svg">
<mask id="path-1-outside-1_2638_5367" maskUnits="userSpaceOnUse" x="0" y="0" width="21" height="28" fill="black">
<rect fill="white" width="21" height="28"/>
<path fill-rule="evenodd" clip-rule="evenodd" d="M18.9091 4.43059C18.9087 4.43059 18.9084 4.43059 18.9081 4.43059C14.2391 4.43059 10.4541 8.78347 10.4541 14.153C10.4541 19.5226 14.2391 23.8755 18.9081 23.8755C18.9084 23.8755 18.9088 23.8755 18.9091 23.8755C17.1428 25.4017 14.947 26.3061 12.5675 26.3061C6.73125 26.3061 2 20.865 2 14.153C2 7.4411 6.73125 2 12.5675 2C14.947 2 17.1427 2.9044 18.9091 4.43059Z"/>
</mask>
<path fill-rule="evenodd" clip-rule="evenodd" d="M18.9091 4.43059C18.9087 4.43059 18.9084 4.43059 18.9081 4.43059C14.2391 4.43059 10.4541 8.78347 10.4541 14.153C10.4541 19.5226 14.2391 23.8755 18.9081 23.8755C18.9084 23.8755 18.9088 23.8755 18.9091 23.8755C17.1428 25.4017 14.947 26.3061 12.5675 26.3061C6.73125 26.3061 2 20.865 2 14.153C2 7.4411 6.73125 2 12.5675 2C14.947 2 17.1427 2.9044 18.9091 4.43059Z" fill="#F8FFA2"/>
<path d="M18.9091 4.43059V5.55787C19.38 5.55787 19.8013 5.26513 19.9655 4.82379C20.1298 4.38245 20.0024 3.8855 19.6461 3.57762L18.9091 4.43059ZM18.9091 23.8755L19.6461 24.7284C20.0025 24.4205 20.1298 23.9236 19.9656 23.4823C19.8013 23.0409 19.38 22.7482 18.9091 22.7482V23.8755ZM18.9081 5.55786L18.9091 5.55787V3.30332L18.9081 3.30332V5.55786ZM11.5813 14.153C11.5813 9.25292 15.0044 5.55786 18.9081 5.55786V3.30332C13.4737 3.30332 9.32678 8.31402 9.32678 14.153H11.5813ZM18.9081 22.7482C15.0044 22.7482 11.5813 19.0531 11.5813 14.153H9.32678C9.32678 19.992 13.4737 25.0027 18.9081 25.0027V22.7482ZM18.9091 22.7482C18.9091 22.7482 18.9091 22.7482 18.9091 22.7482C18.9091 22.7482 18.9091 22.7482 18.9091 22.7482C18.9091 22.7482 18.9091 22.7482 18.9091 22.7482C18.9091 22.7482 18.9091 22.7482 18.9091 22.7482C18.9091 22.7482 18.9091 22.7482 18.9091 22.7482C18.9091 22.7482 18.9091 22.7482 18.9091 22.7482C18.9091 22.7482 18.9091 22.7482 18.9091 22.7482C18.9091 22.7482 18.9091 22.7482 18.9091 22.7482C18.9091 22.7482 18.9091 22.7482 18.9091 22.7482C18.9091 22.7482 18.9091 22.7482 18.9091 22.7482C18.9091 22.7482 18.9091 22.7482 18.9091 22.7482C18.9091 22.7482 18.9091 22.7482 18.9091 22.7482C18.9091 22.7482 18.9091 22.7482 18.9091 22.7482C18.9091 22.7482 18.9091 22.7482 18.9091 22.7482C18.9091 22.7482 18.9091 22.7482 18.9091 22.7482C18.9091 22.7482 18.9091 22.7482 18.9091 22.7482C18.9091 22.7482 18.9091 22.7482 18.9091 22.7482C18.9091 22.7482 18.9091 22.7482 18.9091 22.7482C18.9091 22.7482 18.9091 22.7482 18.9091 22.7482C18.9091 22.7482 18.9091 22.7482 18.9091 22.7482C18.9091 22.7482 18.9091 22.7482 18.9091 22.7482C18.9091 22.7482 18.9091 22.7482 18.9091 22.7482C18.9091 22.7482 18.9091 22.7482 18.9091 22.7482C18.9091 22.7482 18.9091 22.7482 18.9091 22.7482C18.9091 22.7482 18.9091 22.7482 18.9091 22.7482C18.9091 22.7482 18.9091 22.7482 18.9091 22.7482C18.9091 22.7482 18.9091 22.7482 18.9091 22.7482C18.9091 22.7482 18.9091 22.7482 18.9091 22.7482C18.9091 22.7482 18.9091 22.7482 18.9091 22.7482C18.9091 22.7482 18.9091 22.7482 18.9091 22.7482C18.9091 22.7482 18.9091 22.7482 18.9091 22.7482C18.9091 22.7482 18.909 22.7482 18.909 22.7482C18.909 22.7482 18.909 22.7482 18.909 22.7482C18.909 22.7482 18.909 22.7482 18.909 22.7482C18.909 22.7482 18.909 22.7482 18.909 22.7482C18.909 22.7482 18.909 22.7482 18.909 22.7482C18.909 22.7482 18.909 22.7482 18.909 22.7482C18.909 22.7482 18.909 22.7482 18.909 22.7482C18.909 22.7482 18.909 22.7482 18.909 22.7482C18.909 22.7482 18.909 22.7482 18.909 22.7482C18.909 22.7482 18.909 22.7482 18.909 22.7482C18.909 22.7482 18.909 22.7482 18.909 22.7482C18.909 22.7482 18.909 22.7482 18.909 22.7482C18.909 22.7482 18.909 22.7482 18.909 22.7482C18.909 22.7482 18.909 22.7482 18.909 22.7482C18.909 22.7482 18.909 22.7482 18.909 22.7482C18.909 22.7482 18.909 22.7482 18.909 22.7482C18.909 22.7482 18.909 22.7482 18.909 22.7482C18.909 22.7482 18.909 22.7482 18.909 22.7482C18.909 22.7482 18.909 22.7482 18.909 22.7482C18.909 22.7482 18.909 22.7482 18.909 22.7482C18.909 22.7482 18.909 22.7482 18.909 22.7482C18.909 22.7482 18.909 22.7482 18.909 22.7482C18.909 22.7482 18.909 22.7482 18.909 22.7482C18.909 22.7482 18.909 22.7482 18.909 22.7482C18.909 22.7482 18.909 22.7482 18.909 22.7482C18.909 22.7482 18.909 22.7482 18.909 22.7482C18.909 22.7482 18.909 22.7482 18.909 22.7482C18.909 22.7482 18.909 22.7482 18.909 22.7482C18.909 22.7482 18.909 22.7482 18.909 22.7482C18.909 22.7482 18.909 22.7482 18.909 22.7482C18.909 22.7482 18.909 22.7482 18.909 22.7482C18.909 22.7482 18.909 22.7482 18.909 22.7482C18.909 22.7482 18.909 22.7482 18.909 22.7482C18.909 22.7482 18.909 22.7482 18.909 22.7482C18.909 22.7482 18.909 22.7482 18.909 22.7482C18.909 22.7482 18.909 22.7482 18.909 22.7482C18.909 22.7482 18.909 22.7482 18.909 22.7482C18.909 22.7482 18.909 22.7482 18.909 22.7482C18.909 22.7482 18.909 22.7482 18.909 22.7482C18.909 22.7482 18.909 22.7482 18.909 22.7482C18.909 22.7482 18.909 22.7482 18.909 22.7482C18.909 22.7482 18.909 22.7482 18.909 22.7482C18.909 22.7482 18.909 22.7482 18.909 22.7482C18.909 22.7482 18.909 22.7482 18.909 22.7482C18.909 22.7482 18.909 22.7482 18.909 22.7482C18.909 22.7482 18.909 22.7482 18.909 22.7482C18.909 22.7482 18.909 22.7482 18.909 22.7482C18.909 22.7482 18.909 22.7482 18.909 22.7482C18.909 22.7482 18.909 22.7482 18.909 22.7482C18.909 22.7482 18.909 22.7482 18.909 22.7482C18.909 22.7482 18.9089 22.7482 18.9089 22.7482C18.9089 22.7482 18.9089 22.7482 18.9089 22.7482C18.9089 22.7482 18.9089 22.7482 18.9089 22.7482C18.9089 22.7482 18.9089 22.7482 18.9089 22.7482C18.9089 22.7482 18.9089 22.7482 18.9089 22.7482C18.9089 22.7482 18.9089 22.7482 18.9089 22.7482C18.9089 22.7482 18.9089 22.7482 18.9089 22.7482C18.9089 22.7482 18.9089 22.7482 18.9089 22.7482C18.9089 22.7482 18.9089 22.7482 18.9089 22.7482C18.9089 22.7482 18.9089 22.7482 18.9089 22.7482C18.9089 22.7482 18.9089 22.7482 18.9089 22.7482C18.9089 22.7482 18.9089 22.7482 18.9089 22.7482C18.9089 22.7482 18.9089 22.7482 18.9089 22.7482C18.9089 22.7482 18.9089 22.7482 18.9089 22.7482C18.9089 22.7482 18.9089 22.7482 18.9089 22.7482C18.9089 22.7482 18.9089 22.7482 18.9089 22.7482C18.9089 22.7482 18.9089 22.7482 18.9089 22.7482C18.9089 22.7482 18.9089 22.7482 18.9089 22.7482C18.9089 22.7482 18.9089 22.7482 18.9089 22.7482C18.9089 22.7482 18.9089 22.7482 18.9089 22.7482C18.9089 22.7482 18.9089 22.7482 18.9089 22.7482C18.9089 22.7482 18.9089 22.7482 18.9089 22.7482C18.9089 22.7482 18.9089 22.7482 18.9089 22.7482C18.9089 22.7482 18.9089 22.7482 18.9089 22.7482C18.9089 22.7482 18.9089 22.7482 18.9089 22.7482C18.9089 22.7482 18.9089 22.7482 18.9089 22.7482C18.9089 22.7482 18.9089 22.7482 18.9089 22.7482C18.9089 22.7482 18.9089 22.7482 18.9089 22.7482C18.9089 22.7482 18.9089 22.7482 18.9089 22.7482C18.9089 22.7482 18.9089 22.7482 18.9089 22.7482C18.9089 22.7482 18.9089 22.7482 18.9089 22.7482C18.9089 22.7482 18.9089 22.7482 18.9089 22.7482C18.9089 22.7482 18.9089 22.7482 18.9089 22.7482C18.9089 22.7482 18.9089 22.7482 18.9089 22.7482C18.9089 22.7482 18.9089 22.7482 18.9089 22.7482C18.9089 22.7482 18.9089 22.7482 18.9089 22.7482C18.9089 22.7482 18.9089 22.7482 18.9089 22.7482C18.9089 22.7482 18.9089 22.7482 18.9089 22.7482C18.9089 22.7482 18.9089 22.7482 18.9089 22.7482C18.9089 22.7482 18.9089 22.7482 18.9089 22.7482C18.9089 22.7482 18.9089 22.7482 18.9089 22.7482C18.9089 22.7482 18.9089 22.7482 18.9089 22.7482C18.9089 22.7482 18.9089 22.7482 18.9089 22.7482C18.9089 22.7482 18.9089 22.7482 18.9089 22.7482C18.9089 22.7482 18.9089 22.7482 18.9089 22.7482C18.9089 22.7482 18.9089 22.7482 18.9089 22.7482C18.9089 22.7482 18.9089 22.7482 18.9089 22.7482C18.9089 22.7482 18.9089 22.7482 18.9089 22.7482C18.9089 22.7482 18.9089 22.7482 18.9089 22.7482C18.9089 22.7482 18.9089 22.7482 18.9089 22.7482C18.9089 22.7482 18.9088 22.7482 18.9088 22.7482C18.9088 22.7482 18.9088 22.7482 18.9088 22.7482C18.9088 22.7482 18.9088 22.7482 18.9088 22.7482C18.9088 22.7482 18.9088 22.7482 18.9088 22.7482C18.9088 22.7482 18.9088 22.7482 18.9088 22.7482C18.9088 22.7482 18.9088 22.7482 18.9088 22.7482C18.9088 22.7482 18.9088 22.7482 18.9088 22.7482C18.9088 22.7482 18.9088 22.7482 18.9088 22.7482C18.9088 22.7482 18.9088 22.7482 18.9088 22.7482C18.9088 22.7482 18.9088 22.7482 18.9088 22.7482C18.9088 22.7482 18.9088 22.7482 18.9088 22.7482C18.9088 22.7482 18.9088 22.7482 18.9088 22.7482C18.9088 22.7482 18.9088 22.7482 18.9088 22.7482C18.9088 22.7482 18.9088 22.7482 18.9088 22.7482C18.9088 22.7482 18.9088 22.7482 18.9088 22.7482C18.9088 22.7482 18.9088 22.7482 18.9088 22.7482C18.9088 22.7482 18.9088 22.7482 18.9088 22.7482C18.9088 22.7482 18.9088 22.7482 18.9088 22.7482C18.9088 22.7482 18.9088 22.7482 18.9088 22.7482C18.9088 22.7482 18.9088 22.7482 18.9088 22.7482C18.9088 22.7482 18.9088 22.7482 18.9088 22.7482C18.9088 22.7482 18.9088 22.7482 18.9088 22.7482C18.9088 22.7482 18.9088 22.7482 18.9088 22.7482C18.9088 22.7482 18.9088 22.7482 18.9088 22.7482C18.9088 22.7482 18.9088 22.7482 18.9088 22.7482C18.9088 22.7482 18.9088 22.7482 18.9088 22.7482C18.9088 22.7482 18.9088 22.7482 18.9088 22.7482C18.9088 22.7482 18.9088 22.7482 18.9088 22.7482C18.9088 22.7482 18.9088 22.7482 18.9088 22.7482C18.9088 22.7482 18.9088 22.7482 18.9088 22.7482C18.9088 22.7482 18.9088 22.7482 18.9088 22.7482C18.9088 22.7482 18.9088 22.7482 18.9088 22.7482C18.9088 22.7482 18.9088 22.7482 18.9088 22.7482C18.9088 22.7482 18.9088 22.7482 18.9088 22.7482C18.9088 22.7482 18.9088 22.7482 18.9088 22.7482C18.9088 22.7482 18.9088 22.7482 18.9088 22.7482C18.9088 22.7482 18.9088 22.7482 18.9088 22.7482C18.9088 22.7482 18.9088 22.7482 18.9088 22.7482C18.9088 22.7482 18.9088 22.7482 18.9088 22.7482C18.9088 22.7482 18.9088 22.7482 18.9088 22.7482C18.9088 22.7482 18.9088 22.7482 18.9088 22.7482C18.9088 22.7482 18.9088 22.7482 18.9088 22.7482C18.9088 22.7482 18.9088 22.7482 18.9088 22.7482C18.9088 22.7482 18.9088 22.7482 18.9088 22.7482C18.9088 22.7482 18.9088 22.7482 18.9088 22.7482C18.9088 22.7482 18.9088 22.7482 18.9088 22.7482C18.9088 22.7482 18.9088 22.7482 18.9088 22.7482C18.9088 22.7482 18.9088 22.7482 18.9088 22.7482C18.9088 22.7482 18.9088 22.7482 18.9088 22.7482C18.9088 22.7482 18.9088 22.7482 18.9088 22.7482C18.9087 22.7482 18.9087 22.7482 18.9087 22.7482C18.9087 22.7482 18.9087 22.7482 18.9087 22.7482C18.9087 22.7482 18.9087 22.7482 18.9087 22.7482C18.9087 22.7482 18.9087 22.7482 18.9087 22.7482C18.9087 22.7482 18.9087 22.7482 18.9087 22.7482C18.9087 22.7482 18.9087 22.7482 18.9087 22.7482C18.9087 22.7482 18.9087 22.7482 18.9087 22.7482C18.9087 22.7482 18.9087 22.7482 18.9087 22.7482C18.9087 22.7482 18.9087 22.7482 18.9087 22.7482C18.9087 22.7482 18.9087 22.7482 18.9087 22.7482C18.9087 22.7482 18.9087 22.7482 18.9087 22.7482C18.9087 22.7482 18.9087 22.7482 18.9087 22.7482C18.9087 22.7482 18.9087 22.7482 18.9087 22.7482C18.9087 22.7482 18.9087 22.7482 18.9087 22.7482C18.9087 22.7482 18.9087 22.7482 18.9087 22.7482C18.9087 22.7482 18.9087 22.7482 18.9087 22.7482C18.9087 22.7482 18.9087 22.7482 18.9087 22.7482C18.9087 22.7482 18.9087 22.7482 18.9087 22.7482C18.9087 22.7482 18.9087 22.7482 18.9087 22.7482C18.9087 22.7482 18.9087 22.7482 18.9087 22.7482C18.9087 22.7482 18.9087 22.7482 18.9087 22.7482C18.9087 22.7482 18.9087 22.7482 18.9087 22.7482C18.9087 22.7482 18.9087 22.7482 18.9087 22.7482C18.9087 22.7482 18.9087 22.7482 18.9087 22.7482C18.9087 22.7482 18.9087 22.7482 18.9087 22.7482C18.9087 22.7482 18.9087 22.7482 18.9087 22.7482C18.9087 22.7482 18.9087 22.7482 18.9087 22.7482C18.9087 22.7482 18.9087 22.7482 18.9087 22.7482C18.9087 22.7482 18.9087 22.7482 18.9087 22.7482C18.9087 22.7482 18.9087 22.7482 18.9087 22.7482C18.9087 22.7482 18.9087 22.7482 18.9087 22.7482C18.9087 22.7482 18.9087 22.7482 18.9087 22.7482C18.9087 22.7482 18.9087 22.7482 18.9087 22.7482C18.9087 22.7482 18.9087 22.7482 18.9087 22.7482C18.9087 22.7482 18.9087 22.7482 18.9087 22.7482C18.9087 22.7482 18.9087 22.7482 18.9087 22.7482C18.9087 22.7482 18.9087 22.7482 18.9087 22.7482C18.9087 22.7482 18.9087 22.7482 18.9087 22.7482C18.9087 22.7482 18.9087 22.7482 18.9087 22.7482C18.9087 22.7482 18.9087 22.7482 18.9087 22.7482C18.9087 22.7482 18.9087 22.7482 18.9087 22.7482C18.9087 22.7482 18.9087 22.7482 18.9087 22.7482C18.9087 22.7482 18.9087 22.7482 18.9087 22.7482C18.9087 22.7482 18.9087 22.7482 18.9087 22.7482C18.9087 22.7482 18.9087 22.7482 18.9087 22.7482C18.9087 22.7482 18.9087 22.7482 18.9087 22.7482C18.9087 22.7482 18.9087 22.7482 18.9087 22.7482C18.9087 22.7482 18.9087 22.7482 18.9087 22.7482C18.9087 22.7482 18.9087 22.7482 18.9087 22.7482C18.9087 22.7482 18.9087 22.7482 18.9086 22.7482C18.9086 22.7482 18.9086 22.7482 18.9086 22.7482C18.9086 22.7482 18.9086 22.7482 18.9086 22.7482C18.9086 22.7482 18.9086 22.7482 18.9086 22.7482C18.9086 22.7482 18.9086 22.7482 18.9086 22.7482C18.9086 22.7482 18.9086 22.7482 18.9086 22.7482C18.9086 22.7482 18.9086 22.7482 18.9086 22.7482C18.9086 22.7482 18.9086 22.7482 18.9086 22.7482C18.9086 22.7482 18.9086 22.7482 18.9086 22.7482C18.9086 22.7482 18.9086 22.7482 18.9086 22.7482C18.9086 22.7482 18.9086 22.7482 18.9086 22.7482C18.9086 22.7482 18.9086 22.7482 18.9086 22.7482C18.9086 22.7482 18.9086 22.7482 18.9086 22.7482C18.9086 22.7482 18.9086 22.7482 18.9086 22.7482C18.9086 22.7482 18.9086 22.7482 18.9086 22.7482C18.9086 22.7482 18.9086 22.7482 18.9086 22.7482C18.9086 22.7482 18.9086 22.7482 18.9086 22.7482C18.9086 22.7482 18.9086 22.7482 18.9086 22.7482C18.9086 22.7482 18.9086 22.7482 18.9086 22.7482C18.9086 22.7482 18.9086 22.7482 18.9086 22.7482C18.9086 22.7482 18.9086 22.7482 18.9086 22.7482C18.9086 22.7482 18.9086 22.7482 18.9086 22.7482C18.9086 22.7482 18.9086 22.7482 18.9086 22.7482C18.9086 22.7482 18.9086 22.7482 18.9086 22.7482C18.9086 22.7482 18.9086 22.7482 18.9086 22.7482C18.9086 22.7482 18.9086 22.7482 18.9086 22.7482C18.9086 22.7482 18.9086 22.7482 18.9086 22.7482C18.9086 22.7482 18.9086 22.7482 18.9086 22.7482C18.9086 22.7482 18.9086 22.7482 18.9086 22.7482C18.9086 22.7482 18.9086 22.7482 18.9086 22.7482C18.9086 22.7482 18.9086 22.7482 18.9086 22.7482C18.9086 22.7482 18.9086 22.7482 18.9086 22.7482C18.9086 22.7482 18.9086 22.7482 18.9086 22.7482C18.9086 22.7482 18.9086 22.7482 18.9086 22.7482C18.9086 22.7482 18.9086 22.7482 18.9086 22.7482C18.9086 22.7482 18.9086 22.7482 18.9086 22.7482C18.9086 22.7482 18.9086 22.7482 18.9086 22.7482C18.9086 22.7482 18.9086 22.7482 18.9086 22.7482C18.9086 22.7482 18.9086 22.7482 18.9086 22.7482C18.9086 22.7482 18.9086 22.7482 18.9086 22.7482C18.9086 22.7482 18.9086 22.7482 18.9086 22.7482C18.9086 22.7482 18.9086 22.7482 18.9086 22.7482C18.9086 22.7482 18.9086 22.7482 18.9086 22.7482C18.9086 22.7482 18.9086 22.7482 18.9086 22.7482C18.9086 22.7482 18.9086 22.7482 18.9086 22.7482C18.9086 22.7482 18.9086 22.7482 18.9086 22.7482C18.9086 22.7482 18.9086 22.7482 18.9086 22.7482C18.9086 22.7482 18.9086 22.7482 18.9086 22.7482C18.9086 22.7482 18.9086 22.7482 18.9086 22.7482C18.9086 22.7482 18.9086 22.7482 18.9086 22.7482C18.9085 22.7482 18.9085 22.7482 18.9085 22.7482C18.9085 22.7482 18.9085 22.7482 18.9085 22.7482C18.9085 22.7482 18.9085 22.7482 18.9085 22.7482C18.9085 22.7482 18.9085 22.7482 18.9085 22.7482C18.9085 22.7482 18.9085 22.7482 18.9085 22.7482C18.9085 22.7482 18.9085 22.7482 18.9085 22.7482C18.9085 22.7482 18.9085 22.7482 18.9085 22.7482C18.9085 22.7482 18.9085 22.7482 18.9085 22.7482C18.9085 22.7482 18.9085 22.7482 18.9085 22.7482C18.9085 22.7482 18.9085 22.7482 18.9085 22.7482C18.9085 22.7482 18.9085 22.7482 18.9085 22.7482C18.9085 22.7482 18.9085 22.7482 18.9085 22.7482C18.9085 22.7482 18.9085 22.7482 18.9085 22.7482C18.9085 22.7482 18.9085 22.7482 18.9085 22.7482C18.9085 22.7482 18.9085 22.7482 18.9085 22.7482C18.9085 22.7482 18.9085 22.7482 18.9085 22.7482C18.9085 22.7482 18.9085 22.7482 18.9085 22.7482C18.9085 22.7482 18.9085 22.7482 18.9085 22.7482C18.9085 22.7482 18.9085 22.7482 18.9085 22.7482C18.9085 22.7482 18.9085 22.7482 18.9085 22.7482C18.9085 22.7482 18.9085 22.7482 18.9085 22.7482C18.9085 22.7482 18.9085 22.7482 18.9085 22.7482C18.9085 22.7482 18.9085 22.7482 18.9085 22.7482C18.9085 22.7482 18.9085 22.7482 18.9085 22.7482C18.9085 22.7482 18.9085 22.7482 18.9085 22.7482C18.9085 22.7482 18.9085 22.7482 18.9085 22.7482C18.9085 22.7482 18.9085 22.7482 18.9085 22.7482C18.9085 22.7482 18.9085 22.7482 18.9085 22.7482C18.9085 22.7482 18.9085 22.7482 18.9085 22.7482C18.9085 22.7482 18.9085 22.7482 18.9085 22.7482C18.9085 22.7482 18.9085 22.7482 18.9085 22.7482C18.9085 22.7482 18.9085 22.7482 18.9085 22.7482C18.9085 22.7482 18.9085 22.7482 18.9085 22.7482C18.9085 22.7482 18.9085 22.7482 18.9085 22.7482C18.9085 22.7482 18.9085 22.7482 18.9085 22.7482C18.9085 22.7482 18.9085 22.7482 18.9085 22.7482C18.9085 22.7482 18.9085 22.7482 18.9085 22.7482C18.9085 22.7482 18.9085 22.7482 18.9085 22.7482C18.9085 22.7482 18.9085 22.7482 18.9085 22.7482C18.9085 22.7482 18.9085 22.7482 18.9085 22.7482C18.9085 22.7482 18.9085 22.7482 18.9085 22.7482C18.9085 22.7482 18.9085 22.7482 18.9085 22.7482C18.9085 22.7482 18.9085 22.7482 18.9085 22.7482C18.9085 22.7482 18.9085 22.7482 18.9085 22.7482C18.9085 22.7482 18.9085 22.7482 18.9085 22.7482C18.9085 22.7482 18.9085 22.7482 18.9085 22.7482C18.9085 22.7482 18.9085 22.7482 18.9085 22.7482C18.9085 22.7482 18.9085 22.7482 18.9085 22.7482C18.9085 22.7482 18.9085 22.7482 18.9085 22.7482C18.9085 22.7482 18.9085 22.7482 18.9084 22.7482C18.9084 22.7482 18.9084 22.7482 18.9084 22.7482C18.9084 22.7482 18.9084 22.7482 18.9084 22.7482C18.9084 22.7482 18.9084 22.7482 18.9084 22.7482C18.9084 22.7482 18.9084 22.7482 18.9084 22.7482C18.9084 22.7482 18.9084 22.7482 18.9084 22.7482C18.9084 22.7482 18.9084 22.7482 18.9084 22.7482C18.9084 22.7482 18.9084 22.7482 18.9084 22.7482C18.9084 22.7482 18.9084 22.7482 18.9084 22.7482C18.9084 22.7482 18.9084 22.7482 18.9084 22.7482C18.9084 22.7482 18.9084 22.7482 18.9084 22.7482C18.9084 22.7482 18.9084 22.7482 18.9084 22.7482C18.9084 22.7482 18.9084 22.7482 18.9084 22.7482C18.9084 22.7482 18.9084 22.7482 18.9084 22.7482C18.9084 22.7482 18.9084 22.7482 18.9084 22.7482C18.9084 22.7482 18.9084 22.7482 18.9084 22.7482C18.9084 22.7482 18.9084 22.7482 18.9084 22.7482C18.9084 22.7482 18.9084 22.7482 18.9084 22.7482C18.9084 22.7482 18.9084 22.7482 18.9084 22.7482C18.9084 22.7482 18.9084 22.7482 18.9084 22.7482C18.9084 22.7482 18.9084 22.7482 18.9084 22.7482C18.9084 22.7482 18.9084 22.7482 18.9084 22.7482C18.9084 22.7482 18.9084 22.7482 18.9084 22.7482C18.9084 22.7482 18.9084 22.7482 18.9084 22.7482C18.9084 22.7482 18.9084 22.7482 18.9084 22.7482C18.9084 22.7482 18.9084 22.7482 18.9084 22.7482C18.9084 22.7482 18.9084 22.7482 18.9084 22.7482C18.9084 22.7482 18.9084 22.7482 18.9084 22.7482C18.9084 22.7482 18.9084 22.7482 18.9084 22.7482C18.9084 22.7482 18.9084 22.7482 18.9084 22.7482C18.9084 22.7482 18.9084 22.7482 18.9084 22.7482C18.9084 22.7482 18.9084 22.7482 18.9084 22.7482C18.9084 22.7482 18.9084 22.7482 18.9084 22.7482C18.9084 22.7482 18.9084 22.7482 18.9084 22.7482C18.9084 22.7482 18.9084 22.7482 18.9084 22.7482C18.9084 22.7482 18.9084 22.7482 18.9084 22.7482C18.9084 22.7482 18.9084 22.7482 18.9084 22.7482C18.9084 22.7482 18.9084 22.7482 18.9084 22.7482C18.9084 22.7482 18.9084 22.7482 18.9084 22.7482C18.9084 22.7482 18.9084 22.7482 18.9084 22.7482C18.9084 22.7482 18.9084 22.7482 18.9084 22.7482C18.9084 22.7482 18.9084 22.7482 18.9084 22.7482C18.9084 22.7482 18.9084 22.7482 18.9084 22.7482C18.9084 22.7482 18.9084 22.7482 18.9084 22.7482C18.9084 22.7482 18.9084 22.7482 18.9084 22.7482C18.9084 22.7482 18.9084 22.7482 18.9084 22.7482C18.9084 22.7482 18.9084 22.7482 18.9084 22.7482C18.9084 22.7482 18.9084 22.7482 18.9084 22.7482C18.9084 22.7482 18.9084 22.7482 18.9084 22.7482C18.9084 22.7482 18.9084 22.7482 18.9084 22.7482C18.9084 22.7482 18.9083 22.7482 18.9083 22.7482C18.9083 22.7482 18.9083 22.7482 18.9083 22.7482C18.9083 22.7482 18.9083 22.7482 18.9083 22.7482C18.9083 22.7482 18.9083 22.7482 18.9083 22.7482C18.9083 22.7482 18.9083 22.7482 18.9083 22.7482C18.9083 22.7482 18.9083 22.7482 18.9083 22.7482C18.9083 22.7482 18.9083 22.7482 18.9083 22.7482C18.9083 22.7482 18.9083 22.7482 18.9083 22.7482C18.9083 22.7482 18.9083 22.7482 18.9083 22.7482C18.9083 22.7482 18.9083 22.7482 18.9083 22.7482C18.9083 22.7482 18.9083 22.7482 18.9083 22.7482C18.9083 22.7482 18.9083 22.7482 18.9083 22.7482C18.9083 22.7482 18.9083 22.7482 18.9083 22.7482C18.9083 22.7482 18.9083 22.7482 18.9083 22.7482C18.9083 22.7482 18.9083 22.7482 18.9083 22.7482C18.9083 22.7482 18.9083 22.7482 18.9083 22.7482C18.9083 22.7482 18.9083 22.7482 18.9083 22.7482C18.9083 22.7482 18.9083 22.7482 18.9083 22.7482C18.9083 22.7482 18.9083 22.7482 18.9083 22.7482C18.9083 22.7482 18.9083 22.7482 18.9083 22.7482C18.9083 22.7482 18.9083 22.7482 18.9083 22.7482C18.9083 22.7482 18.9083 22.7482 18.9083 22.7482C18.9083 22.7482 18.9083 22.7482 18.9083 22.7482C18.9083 22.7482 18.9083 22.7482 18.9083 22.7482C18.9083 22.7482 18.9083 22.7482 18.9083 22.7482C18.9083 22.7482 18.9083 22.7482 18.9083 22.7482C18.9083 22.7482 18.9083 22.7482 18.9083 22.7482C18.9083 22.7482 18.9083 22.7482 18.9083 22.7482C18.9083 22.7482 18.9083 22.7482 18.9083 22.7482C18.9083 22.7482 18.9083 22.7482 18.9083 22.7482C18.9083 22.7482 18.9083 22.7482 18.9083 22.7482C18.9083 22.7482 18.9083 22.7482 18.9083 22.7482C18.9083 22.7482 18.9083 22.7482 18.9083 22.7482C18.9083 22.7482 18.9083 22.7482 18.9083 22.7482C18.9083 22.7482 18.9083 22.7482 18.9083 22.7482C18.9083 22.7482 18.9083 22.7482 18.9083 22.7482C18.9083 22.7482 18.9083 22.7482 18.9083 22.7482C18.9083 22.7482 18.9083 22.7482 18.9083 22.7482C18.9083 22.7482 18.9083 22.7482 18.9083 22.7482C18.9083 22.7482 18.9083 22.7482 18.9083 22.7482C18.9083 22.7482 18.9083 22.7482 18.9083 22.7482C18.9083 22.7482 18.9083 22.7482 18.9083 22.7482C18.9083 22.7482 18.9083 22.7482 18.9083 22.7482C18.9083 22.7482 18.9083 22.7482 18.9083 22.7482C18.9083 22.7482 18.9083 22.7482 18.9083 22.7482C18.9083 22.7482 18.9083 22.7482 18.9083 22.7482C18.9083 22.7482 18.9083 22.7482 18.9083 22.7482C18.9083 22.7482 18.9083 22.7482 18.9083 22.7482C18.9083 22.7482 18.9083 22.7482 18.9083 22.7482C18.9083 22.7482 18.9083 22.7482 18.9083 22.7482C18.9082 22.7482 18.9082 22.7482 18.9082 22.7482C18.9082 22.7482 18.9082 22.7482 18.9082 22.7482C18.9082 22.7482 18.9082 22.7482 18.9082 22.7482C18.9082 22.7482 18.9082 22.7482 18.9082 22.7482C18.9082 22.7482 18.9082 22.7482 18.9082 22.7482C18.9082 22.7482 18.9082 22.7482 18.9082 22.7482C18.9082 22.7482 18.9082 22.7482 18.9082 22.7482C18.9082 22.7482 18.9082 22.7482 18.9082 22.7482C18.9082 22.7482 18.9082 22.7482 18.9082 22.7482C18.9082 22.7482 18.9082 22.7482 18.9082 22.7482C18.9082 22.7482 18.9082 22.7482 18.9082 22.7482C18.9082 22.7482 18.9082 22.7482 18.9082 22.7482C18.9082 22.7482 18.9082 22.7482 18.9082 22.7482C18.9082 22.7482 18.9082 22.7482 18.9082 22.7482C18.9082 22.7482 18.9082 22.7482 18.9082 22.7482C18.9082 22.7482 18.9082 22.7482 18.9082 22.7482C18.9082 22.7482 18.9082 22.7482 18.9082 22.7482C18.9082 22.7482 18.9082 22.7482 18.9082 22.7482C18.9082 22.7482 18.9082 22.7482 18.9082 22.7482C18.9082 22.7482 18.9082 22.7482 18.9082 22.7482C18.9082 22.7482 18.9082 22.7482 18.9082 22.7482C18.9082 22.7482 18.9082 22.7482 18.9082 22.7482C18.9082 22.7482 18.9082 22.7482 18.9082 22.7482C18.9082 22.7482 18.9082 22.7482 18.9082 22.7482C18.9082 22.7482 18.9082 22.7482 18.9082 22.7482C18.9082 22.7482 18.9082 22.7482 18.9082 22.7482C18.9082 22.7482 18.9082 22.7482 18.9082 22.7482C18.9082 22.7482 18.9082 22.7482 18.9082 22.7482C18.9082 22.7482 18.9082 22.7482 18.9082 22.7482C18.9082 22.7482 18.9082 22.7482 18.9082 22.7482C18.9082 22.7482 18.9082 22.7482 18.9082 22.7482C18.9082 22.7482 18.9082 22.7482 18.9082 22.7482C18.9082 22.7482 18.9082 22.7482 18.9082 22.7482C18.9082 22.7482 18.9082 22.7482 18.9082 22.7482C18.9082 22.7482 18.9082 22.7482 18.9082 22.7482C18.9082 22.7482 18.9082 22.7482 18.9082 22.7482C18.9082 22.7482 18.9082 22.7482 18.9082 22.7482C18.9082 22.7482 18.9082 22.7482 18.9082 22.7482C18.9082 22.7482 18.9082 22.7482 18.9082 22.7482C18.9082 22.7482 18.9082 22.7482 18.9082 22.7482C18.9082 22.7482 18.9082 22.7482 18.9082 22.7482C18.9082 22.7482 18.9082 22.7482 18.9082 22.7482C18.9082 22.7482 18.9082 22.7482 18.9082 22.7482C18.9082 22.7482 18.9082 22.7482 18.9082 22.7482C18.9082 22.7482 18.9082 22.7482 18.9082 22.7482C18.9082 22.7482 18.9082 22.7482 18.9082 22.7482C18.9082 22.7482 18.9082 22.7482 18.9082 22.7482C18.9082 22.7482 18.9082 22.7482 18.9082 22.7482C18.9082 22.7482 18.9082 22.7482 18.9082 22.7482C18.9082 22.7482 18.9082 22.7482 18.9082 22.7482C18.9081 22.7482 18.9081 22.7482 18.9081 22.7482C18.9081 22.7482 18.9081 22.7482 18.9081 22.7482C18.9081 22.7482 18.9081 22.7482 18.9081 22.7482C18.9081 22.7482 18.9081 22.7482 18.9081 22.7482C18.9081 22.7482 18.9081 22.7482 18.9081 22.7482C18.9081 22.7482 18.9081 22.7482 18.9081 22.7482C18.9081 22.7482 18.9081 22.7482 18.9081 22.7482C18.9081 22.7482 18.9081 22.7482 18.9081 22.7482C18.9081 22.7482 18.9081 22.7482 18.9081 22.7482C18.9081 22.7482 18.9081 22.7482 18.9081 22.7482C18.9081 22.7482 18.9081 22.7482 18.9081 22.7482C18.9081 22.7482 18.9081 22.7482 18.9081 22.7482C18.9081 22.7482 18.9081 22.7482 18.9081 22.7482C18.9081 22.7482 18.9081 22.7482 18.9081 22.7482C18.9081 22.7482 18.9081 22.7482 18.9081 22.7482C18.9081 22.7482 18.9081 22.7482 18.9081 22.7482C18.9081 22.7482 18.9081 22.7482 18.9081 22.7482C18.9081 22.7482 18.9081 22.7482 18.9081 22.7482C18.9081 22.7482 18.9081 22.7482 18.9081 22.7482C18.9081 22.7482 18.9081 22.7482 18.9081 22.7482C18.9081 22.7482 18.9081 22.7482 18.9081 22.7482C18.9081 22.7482 18.9081 22.7482 18.9081 22.7482C18.9081 22.7482 18.9081 22.7482 18.9081 22.7482C18.9081 22.7482 18.9081 22.7482 18.9081 22.7482C18.9081 22.7482 18.9081 22.7482 18.9081 22.7482C18.9081 22.7482 18.9081 22.7482 18.9081 22.7482C18.9081 22.7482 18.9081 22.7482 18.9081 22.7482C18.9081 22.7482 18.9081 22.7482 18.9081 22.7482C18.9081 22.7482 18.9081 22.7482 18.9081 22.7482C18.9081 22.7482 18.9081 22.7482 18.9081 22.7482C18.9081 22.7482 18.9081 22.7482 18.9081 22.7482C18.9081 22.7482 18.9081 22.7482 18.9081 22.7482C18.9081 22.7482 18.9081 22.7482 18.9081 22.7482V25.0027C18.9081 25.0027 18.9081 25.0027 18.9081 25.0027C18.9081 25.0027 18.9081 25.0027 18.9081 25.0027C18.9081 25.0027 18.9081 25.0027 18.9081 25.0027C18.9081 25.0027 18.9081 25.0027 18.9081 25.0027C18.9081 25.0027 18.9081 25.0027 18.9081 25.0027C18.9081 25.0027 18.9081 25.0027 18.9081 25.0027C18.9081 25.0027 18.9081 25.0027 18.9081 25.0027C18.9081 25.0027 18.9081 25.0027 18.9081 25.0027C18.9081 25.0027 18.9081 25.0027 18.9081 25.0027C18.9081 25.0027 18.9081 25.0027 18.9081 25.0027C18.9081 25.0027 18.9081 25.0027 18.9081 25.0027C18.9081 25.0027 18.9081 25.0027 18.9081 25.0027C18.9081 25.0027 18.9081 25.0027 18.9081 25.0027C18.9081 25.0027 18.9081 25.0027 18.9081 25.0027C18.9081 25.0027 18.9081 25.0027 18.9081 25.0027C18.9081 25.0027 18.9081 25.0027 18.9081 25.0027C18.9081 25.0027 18.9081 25.0027 18.9081 25.0027C18.9081 25.0027 18.9081 25.0027 18.9081 25.0027C18.9081 25.0027 18.9081 25.0027 18.9081 25.0027C18.9081 25.0027 18.9081 25.0027 18.9081 25.0027C18.9081 25.0027 18.9081 25.0027 18.9081 25.0027C18.9081 25.0027 18.9081 25.0027 18.9081 25.0027C18.9081 25.0027 18.9081 25.0027 18.9081 25.0027C18.9081 25.0027 18.9081 25.0027 18.9081 25.0027C18.9081 25.0027 18.9081 25.0027 18.9081 25.0027C18.9081 25.0027 18.9081 25.0027 18.9081 25.0027C18.9081 25.0027 18.9081 25.0027 18.9081 25.0027C18.9081 25.0027 18.9081 25.0027 18.9081 25.0027C18.9081 25.0027 18.9081 25.0027 18.9081 25.0027C18.9081 25.0027 18.9081 25.0027 18.9081 25.0027C18.9081 25.0027 18.9081 25.0027 18.9081 25.0027C18.9081 25.0027 18.9081 25.0027 18.9081 25.0027C18.9081 25.0027 18.9081 25.0027 18.9082 25.0027C18.9082 25.0027 18.9082 25.0027 18.9082 25.0027C18.9082 25.0027 18.9082 25.0027 18.9082 25.0027C18.9082 25.0027 18.9082 25.0027 18.9082 25.0027C18.9082 25.0027 18.9082 25.0027 18.9082 25.0027C18.9082 25.0027 18.9082 25.0027 18.9082 25.0027C18.9082 25.0027 18.9082 25.0027 18.9082 25.0027C18.9082 25.0027 18.9082 25.0027 18.9082 25.0027C18.9082 25.0027 18.9082 25.0027 18.9082 25.0027C18.9082 25.0027 18.9082 25.0027 18.9082 25.0027C18.9082 25.0027 18.9082 25.0027 18.9082 25.0027C18.9082 25.0027 18.9082 25.0027 18.9082 25.0027C18.9082 25.0027 18.9082 25.0027 18.9082 25.0027C18.9082 25.0027 18.9082 25.0027 18.9082 25.0027C18.9082 25.0027 18.9082 25.0027 18.9082 25.0027C18.9082 25.0027 18.9082 25.0027 18.9082 25.0027C18.9082 25.0027 18.9082 25.0027 18.9082 25.0027C18.9082 25.0027 18.9082 25.0027 18.9082 25.0027C18.9082 25.0027 18.9082 25.0027 18.9082 25.0027C18.9082 25.0027 18.9082 25.0027 18.9082 25.0027C18.9082 25.0027 18.9082 25.0027 18.9082 25.0027C18.9082 25.0027 18.9082 25.0027 18.9082 25.0027C18.9082 25.0027 18.9082 25.0027 18.9082 25.0027C18.9082 25.0027 18.9082 25.0027 18.9082 25.0027C18.9082 25.0027 18.9082 25.0027 18.9082 25.0027C18.9082 25.0027 18.9082 25.0027 18.9082 25.0027C18.9082 25.0027 18.9082 25.0027 18.9082 25.0027C18.9082 25.0027 18.9082 25.0027 18.9082 25.0027C18.9082 25.0027 18.9082 25.0027 18.9082 25.0027C18.9082 25.0027 18.9082 25.0027 18.9082 25.0027C18.9082 25.0027 18.9082 25.0027 18.9082 25.0027C18.9082 25.0027 18.9082 25.0027 18.9082 25.0027C18.9082 25.0027 18.9082 25.0027 18.9082 25.0027C18.9082 25.0027 18.9082 25.0027 18.9082 25.0027C18.9082 25.0027 18.9082 25.0027 18.9082 25.0027C18.9082 25.0027 18.9082 25.0027 18.9082 25.0027C18.9082 25.0027 18.9082 25.0027 18.9082 25.0027C18.9082 25.0027 18.9082 25.0027 18.9082 25.0027C18.9082 25.0027 18.9082 25.0027 18.9082 25.0027C18.9082 25.0027 18.9082 25.0027 18.9082 25.0027C18.9082 25.0027 18.9082 25.0027 18.9082 25.0027C18.9082 25.0027 18.9082 25.0027 18.9082 25.0027C18.9082 25.0027 18.9082 25.0027 18.9082 25.0027C18.9082 25.0027 18.9082 25.0027 18.9082 25.0027C18.9082 25.0027 18.9082 25.0027 18.9082 25.0027C18.9082 25.0027 18.9082 25.0027 18.9082 25.0027C18.9082 25.0027 18.9082 25.0027 18.9082 25.0027C18.9082 25.0027 18.9082 25.0027 18.9082 25.0027C18.9082 25.0027 18.9082 25.0027 18.9082 25.0027C18.9082 25.0027 18.9082 25.0027 18.9082 25.0027C18.9082 25.0027 18.9082 25.0027 18.9083 25.0027C18.9083 25.0027 18.9083 25.0027 18.9083 25.0027C18.9083 25.0027 18.9083 25.0027 18.9083 25.0027C18.9083 25.0027 18.9083 25.0027 18.9083 25.0027C18.9083 25.0027 18.9083 25.0027 18.9083 25.0027C18.9083 25.0027 18.9083 25.0027 18.9083 25.0027C18.9083 25.0027 18.9083 25.0027 18.9083 25.0027C18.9083 25.0027 18.9083 25.0027 18.9083 25.0027C18.9083 25.0027 18.9083 25.0027 18.9083 25.0027C18.9083 25.0027 18.9083 25.0027 18.9083 25.0027C18.9083 25.0027 18.9083 25.0027 18.9083 25.0027C18.9083 25.0027 18.9083 25.0027 18.9083 25.0027C18.9083 25.0027 18.9083 25.0027 18.9083 25.0027C18.9083 25.0027 18.9083 25.0027 18.9083 25.0027C18.9083 25.0027 18.9083 25.0027 18.9083 25.0027C18.9083 25.0027 18.9083 25.0027 18.9083 25.0027C18.9083 25.0027 18.9083 25.0027 18.9083 25.0027C18.9083 25.0027 18.9083 25.0027 18.9083 25.0027C18.9083 25.0027 18.9083 25.0027 18.9083 25.0027C18.9083 25.0027 18.9083 25.0027 18.9083 25.0027C18.9083 25.0027 18.9083 25.0027 18.9083 25.0027C18.9083 25.0027 18.9083 25.0027 18.9083 25.0027C18.9083 25.0027 18.9083 25.0027 18.9083 25.0027C18.9083 25.0027 18.9083 25.0027 18.9083 25.0027C18.9083 25.0027 18.9083 25.0027 18.9083 25.0027C18.9083 25.0027 18.9083 25.0027 18.9083 25.0027C18.9083 25.0027 18.9083 25.0027 18.9083 25.0027C18.9083 25.0027 18.9083 25.0027 18.9083 25.0027C18.9083 25.0027 18.9083 25.0027 18.9083 25.0027C18.9083 25.0027 18.9083 25.0027 18.9083 25.0027C18.9083 25.0027 18.9083 25.0027 18.9083 25.0027C18.9083 25.0027 18.9083 25.0027 18.9083 25.0027C18.9083 25.0027 18.9083 25.0027 18.9083 25.0027C18.9083 25.0027 18.9083 25.0027 18.9083 25.0027C18.9083 25.0027 18.9083 25.0027 18.9083 25.0027C18.9083 25.0027 18.9083 25.0027 18.9083 25.0027C18.9083 25.0027 18.9083 25.0027 18.9083 25.0027C18.9083 25.0027 18.9083 25.0027 18.9083 25.0027C18.9083 25.0027 18.9083 25.0027 18.9083 25.0027C18.9083 25.0027 18.9083 25.0027 18.9083 25.0027C18.9083 25.0027 18.9083 25.0027 18.9083 25.0027C18.9083 25.0027 18.9083 25.0027 18.9083 25.0027C18.9083 25.0027 18.9083 25.0027 18.9083 25.0027C18.9083 25.0027 18.9083 25.0027 18.9083 25.0027C18.9083 25.0027 18.9083 25.0027 18.9083 25.0027C18.9083 25.0027 18.9083 25.0027 18.9083 25.0027C18.9083 25.0027 18.9083 25.0027 18.9083 25.0027C18.9083 25.0027 18.9083 25.0027 18.9083 25.0027C18.9083 25.0027 18.9083 25.0027 18.9083 25.0027C18.9083 25.0027 18.9083 25.0027 18.9083 25.0027C18.9083 25.0027 18.9084 25.0027 18.9084 25.0027C18.9084 25.0027 18.9084 25.0027 18.9084 25.0027C18.9084 25.0027 18.9084 25.0027 18.9084 25.0027C18.9084 25.0027 18.9084 25.0027 18.9084 25.0027C18.9084 25.0027 18.9084 25.0027 18.9084 25.0027C18.9084 25.0027 18.9084 25.0027 18.9084 25.0027C18.9084 25.0027 18.9084 25.0027 18.9084 25.0027C18.9084 25.0027 18.9084 25.0027 18.9084 25.0027C18.9084 25.0027 18.9084 25.0027 18.9084 25.0027C18.9084 25.0027 18.9084 25.0027 18.9084 25.0027C18.9084 25.0027 18.9084 25.0027 18.9084 25.0027C18.9084 25.0027 18.9084 25.0027 18.9084 25.0027C18.9084 25.0027 18.9084 25.0027 18.9084 25.0027C18.9084 25.0027 18.9084 25.0027 18.9084 25.0027C18.9084 25.0027 18.9084 25.0027 18.9084 25.0027C18.9084 25.0027 18.9084 25.0027 18.9084 25.0027C18.9084 25.0027 18.9084 25.0027 18.9084 25.0027C18.9084 25.0027 18.9084 25.0027 18.9084 25.0027C18.9084 25.0027 18.9084 25.0027 18.9084 25.0027C18.9084 25.0027 18.9084 25.0027 18.9084 25.0027C18.9084 25.0027 18.9084 25.0027 18.9084 25.0027C18.9084 25.0027 18.9084 25.0027 18.9084 25.0027C18.9084 25.0027 18.9084 25.0027 18.9084 25.0027C18.9084 25.0027 18.9084 25.0027 18.9084 25.0027C18.9084 25.0027 18.9084 25.0027 18.9084 25.0027C18.9084 25.0027 18.9084 25.0027 18.9084 25.0027C18.9084 25.0027 18.9084 25.0027 18.9084 25.0027C18.9084 25.0027 18.9084 25.0027 18.9084 25.0027C18.9084 25.0027 18.9084 25.0027 18.9084 25.0027C18.9084 25.0027 18.9084 25.0027 18.9084 25.0027C18.9084 25.0027 18.9084 25.0027 18.9084 25.0027C18.9084 25.0027 18.9084 25.0027 18.9084 25.0027C18.9084 25.0027 18.9084 25.0027 18.9084 25.0027C18.9084 25.0027 18.9084 25.0027 18.9084 25.0027C18.9084 25.0027 18.9084 25.0027 18.9084 25.0027C18.9084 25.0027 18.9084 25.0027 18.9084 25.0027C18.9084 25.0027 18.9084 25.0027 18.9084 25.0027C18.9084 25.0027 18.9084 25.0027 18.9084 25.0027C18.9084 25.0027 18.9084 25.0027 18.9084 25.0027C18.9084 25.0027 18.9084 25.0027 18.9084 25.0027C18.9084 25.0027 18.9084 25.0027 18.9084 25.0027C18.9084 25.0027 18.9084 25.0027 18.9084 25.0027C18.9084 25.0027 18.9084 25.0027 18.9084 25.0027C18.9084 25.0027 18.9084 25.0027 18.9084 25.0027C18.9084 25.0027 18.9084 25.0027 18.9084 25.0027C18.9084 25.0027 18.9084 25.0027 18.9084 25.0027C18.9084 25.0027 18.9084 25.0027 18.9084 25.0027C18.9084 25.0027 18.9084 25.0027 18.9084 25.0027C18.9084 25.0027 18.9084 25.0027 18.9084 25.0027C18.9084 25.0027 18.9084 25.0027 18.9084 25.0027C18.9085 25.0027 18.9085 25.0027 18.9085 25.0027C18.9085 25.0027 18.9085 25.0027 18.9085 25.0027C18.9085 25.0027 18.9085 25.0027 18.9085 25.0027C18.9085 25.0027 18.9085 25.0027 18.9085 25.0027C18.9085 25.0027 18.9085 25.0027 18.9085 25.0027C18.9085 25.0027 18.9085 25.0027 18.9085 25.0027C18.9085 25.0027 18.9085 25.0027 18.9085 25.0027C18.9085 25.0027 18.9085 25.0027 18.9085 25.0027C18.9085 25.0027 18.9085 25.0027 18.9085 25.0027C18.9085 25.0027 18.9085 25.0027 18.9085 25.0027C18.9085 25.0027 18.9085 25.0027 18.9085 25.0027C18.9085 25.0027 18.9085 25.0027 18.9085 25.0027C18.9085 25.0027 18.9085 25.0027 18.9085 25.0027C18.9085 25.0027 18.9085 25.0027 18.9085 25.0027C18.9085 25.0027 18.9085 25.0027 18.9085 25.0027C18.9085 25.0027 18.9085 25.0027 18.9085 25.0027C18.9085 25.0027 18.9085 25.0027 18.9085 25.0027C18.9085 25.0027 18.9085 25.0027 18.9085 25.0027C18.9085 25.0027 18.9085 25.0027 18.9085 25.0027C18.9085 25.0027 18.9085 25.0027 18.9085 25.0027C18.9085 25.0027 18.9085 25.0027 18.9085 25.0027C18.9085 25.0027 18.9085 25.0027 18.9085 25.0027C18.9085 25.0027 18.9085 25.0027 18.9085 25.0027C18.9085 25.0027 18.9085 25.0027 18.9085 25.0027C18.9085 25.0027 18.9085 25.0027 18.9085 25.0027C18.9085 25.0027 18.9085 25.0027 18.9085 25.0027C18.9085 25.0027 18.9085 25.0027 18.9085 25.0027C18.9085 25.0027 18.9085 25.0027 18.9085 25.0027C18.9085 25.0027 18.9085 25.0027 18.9085 25.0027C18.9085 25.0027 18.9085 25.0027 18.9085 25.0027C18.9085 25.0027 18.9085 25.0027 18.9085 25.0027C18.9085 25.0027 18.9085 25.0027 18.9085 25.0027C18.9085 25.0027 18.9085 25.0027 18.9085 25.0027C18.9085 25.0027 18.9085 25.0027 18.9085 25.0027C18.9085 25.0027 18.9085 25.0027 18.9085 25.0027C18.9085 25.0027 18.9085 25.0027 18.9085 25.0027C18.9085 25.0027 18.9085 25.0027 18.9085 25.0027C18.9085 25.0027 18.9085 25.0027 18.9085 25.0027C18.9085 25.0027 18.9085 25.0027 18.9085 25.0027C18.9085 25.0027 18.9085 25.0027 18.9085 25.0027C18.9085 25.0027 18.9085 25.0027 18.9085 25.0027C18.9085 25.0027 18.9085 25.0027 18.9085 25.0027C18.9085 25.0027 18.9085 25.0027 18.9085 25.0027C18.9085 25.0027 18.9085 25.0027 18.9085 25.0027C18.9085 25.0027 18.9085 25.0027 18.9085 25.0027C18.9085 25.0027 18.9085 25.0027 18.9085 25.0027C18.9085 25.0027 18.9085 25.0027 18.9085 25.0027C18.9085 25.0027 18.9085 25.0027 18.9085 25.0027C18.9085 25.0027 18.9085 25.0027 18.9085 25.0027C18.9085 25.0027 18.9085 25.0027 18.9086 25.0027C18.9086 25.0027 18.9086 25.0027 18.9086 25.0027C18.9086 25.0027 18.9086 25.0027 18.9086 25.0027C18.9086 25.0027 18.9086 25.0027 18.9086 25.0027C18.9086 25.0027 18.9086 25.0027 18.9086 25.0027C18.9086 25.0027 18.9086 25.0027 18.9086 25.0027C18.9086 25.0027 18.9086 25.0027 18.9086 25.0027C18.9086 25.0027 18.9086 25.0027 18.9086 25.0027C18.9086 25.0027 18.9086 25.0027 18.9086 25.0027C18.9086 25.0027 18.9086 25.0027 18.9086 25.0027C18.9086 25.0027 18.9086 25.0027 18.9086 25.0027C18.9086 25.0027 18.9086 25.0027 18.9086 25.0027C18.9086 25.0027 18.9086 25.0027 18.9086 25.0027C18.9086 25.0027 18.9086 25.0027 18.9086 25.0027C18.9086 25.0027 18.9086 25.0027 18.9086 25.0027C18.9086 25.0027 18.9086 25.0027 18.9086 25.0027C18.9086 25.0027 18.9086 25.0027 18.9086 25.0027C18.9086 25.0027 18.9086 25.0027 18.9086 25.0027C18.9086 25.0027 18.9086 25.0027 18.9086 25.0027C18.9086 25.0027 18.9086 25.0027 18.9086 25.0027C18.9086 25.0027 18.9086 25.0027 18.9086 25.0027C18.9086 25.0027 18.9086 25.0027 18.9086 25.0027C18.9086 25.0027 18.9086 25.0027 18.9086 25.0027C18.9086 25.0027 18.9086 25.0027 18.9086 25.0027C18.9086 25.0027 18.9086 25.0027 18.9086 25.0027C18.9086 25.0027 18.9086 25.0027 18.9086 25.0027C18.9086 25.0027 18.9086 25.0027 18.9086 25.0027C18.9086 25.0027 18.9086 25.0027 18.9086 25.0027C18.9086 25.0027 18.9086 25.0027 18.9086 25.0027C18.9086 25.0027 18.9086 25.0027 18.9086 25.0027C18.9086 25.0027 18.9086 25.0027 18.9086 25.0027C18.9086 25.0027 18.9086 25.0027 18.9086 25.0027C18.9086 25.0027 18.9086 25.0027 18.9086 25.0027C18.9086 25.0027 18.9086 25.0027 18.9086 25.0027C18.9086 25.0027 18.9086 25.0027 18.9086 25.0027C18.9086 25.0027 18.9086 25.0027 18.9086 25.0027C18.9086 25.0027 18.9086 25.0027 18.9086 25.0027C18.9086 25.0027 18.9086 25.0027 18.9086 25.0027C18.9086 25.0027 18.9086 25.0027 18.9086 25.0027C18.9086 25.0027 18.9086 25.0027 18.9086 25.0027C18.9086 25.0027 18.9086 25.0027 18.9086 25.0027C18.9086 25.0027 18.9086 25.0027 18.9086 25.0027C18.9086 25.0027 18.9086 25.0027 18.9086 25.0027C18.9086 25.0027 18.9086 25.0027 18.9086 25.0027C18.9086 25.0027 18.9086 25.0027 18.9086 25.0027C18.9086 25.0027 18.9086 25.0027 18.9086 25.0027C18.9086 25.0027 18.9086 25.0027 18.9086 25.0027C18.9086 25.0027 18.9086 25.0027 18.9086 25.0027C18.9086 25.0027 18.9086 25.0027 18.9086 25.0027C18.9086 25.0027 18.9086 25.0027 18.9086 25.0027C18.9087 25.0027 18.9087 25.0027 18.9087 25.0027C18.9087 25.0027 18.9087 25.0027 18.9087 25.0027C18.9087 25.0027 18.9087 25.0027 18.9087 25.0027C18.9087 25.0027 18.9087 25.0027 18.9087 25.0027C18.9087 25.0027 18.9087 25.0027 18.9087 25.0027C18.9087 25.0027 18.9087 25.0027 18.9087 25.0027C18.9087 25.0027 18.9087 25.0027 18.9087 25.0027C18.9087 25.0027 18.9087 25.0027 18.9087 25.0027C18.9087 25.0027 18.9087 25.0027 18.9087 25.0027C18.9087 25.0027 18.9087 25.0027 18.9087 25.0027C18.9087 25.0027 18.9087 25.0027 18.9087 25.0027C18.9087 25.0027 18.9087 25.0027 18.9087 25.0027C18.9087 25.0027 18.9087 25.0027 18.9087 25.0027C18.9087 25.0027 18.9087 25.0027 18.9087 25.0027C18.9087 25.0027 18.9087 25.0027 18.9087 25.0027C18.9087 25.0027 18.9087 25.0027 18.9087 25.0027C18.9087 25.0027 18.9087 25.0027 18.9087 25.0027C18.9087 25.0027 18.9087 25.0027 18.9087 25.0027C18.9087 25.0027 18.9087 25.0027 18.9087 25.0027C18.9087 25.0027 18.9087 25.0027 18.9087 25.0027C18.9087 25.0027 18.9087 25.0027 18.9087 25.0027C18.9087 25.0027 18.9087 25.0027 18.9087 25.0027C18.9087 25.0027 18.9087 25.0027 18.9087 25.0027C18.9087 25.0027 18.9087 25.0027 18.9087 25.0027C18.9087 25.0027 18.9087 25.0027 18.9087 25.0027C18.9087 25.0027 18.9087 25.0027 18.9087 25.0027C18.9087 25.0027 18.9087 25.0027 18.9087 25.0027C18.9087 25.0027 18.9087 25.0027 18.9087 25.0027C18.9087 25.0027 18.9087 25.0027 18.9087 25.0027C18.9087 25.0027 18.9087 25.0027 18.9087 25.0027C18.9087 25.0027 18.9087 25.0027 18.9087 25.0027C18.9087 25.0027 18.9087 25.0027 18.9087 25.0027C18.9087 25.0027 18.9087 25.0027 18.9087 25.0027C18.9087 25.0027 18.9087 25.0027 18.9087 25.0027C18.9087 25.0027 18.9087 25.0027 18.9087 25.0027C18.9087 25.0027 18.9087 25.0027 18.9087 25.0027C18.9087 25.0027 18.9087 25.0027 18.9087 25.0027C18.9087 25.0027 18.9087 25.0027 18.9087 25.0027C18.9087 25.0027 18.9087 25.0027 18.9087 25.0027C18.9087 25.0027 18.9087 25.0027 18.9087 25.0027C18.9087 25.0027 18.9087 25.0027 18.9087 25.0027C18.9087 25.0027 18.9087 25.0027 18.9087 25.0027C18.9087 25.0027 18.9087 25.0027 18.9087 25.0027C18.9087 25.0027 18.9087 25.0027 18.9087 25.0027C18.9087 25.0027 18.9087 25.0027 18.9087 25.0027C18.9087 25.0027 18.9087 25.0027 18.9087 25.0027C18.9087 25.0027 18.9087 25.0027 18.9087 25.0027C18.9087 25.0027 18.9087 25.0027 18.9087 25.0027C18.9087 25.0027 18.9087 25.0027 18.9087 25.0027C18.9087 25.0027 18.9087 25.0027 18.9088 25.0027C18.9088 25.0027 18.9088 25.0027 18.9088 25.0027C18.9088 25.0027 18.9088 25.0027 18.9088 25.0027C18.9088 25.0027 18.9088 25.0027 18.9088 25.0027C18.9088 25.0027 18.9088 25.0027 18.9088 25.0027C18.9088 25.0027 18.9088 25.0027 18.9088 25.0027C18.9088 25.0027 18.9088 25.0027 18.9088 25.0027C18.9088 25.0027 18.9088 25.0027 18.9088 25.0027C18.9088 25.0027 18.9088 25.0027 18.9088 25.0027C18.9088 25.0027 18.9088 25.0027 18.9088 25.0027C18.9088 25.0027 18.9088 25.0027 18.9088 25.0027C18.9088 25.0027 18.9088 25.0027 18.9088 25.0027C18.9088 25.0027 18.9088 25.0027 18.9088 25.0027C18.9088 25.0027 18.9088 25.0027 18.9088 25.0027C18.9088 25.0027 18.9088 25.0027 18.9088 25.0027C18.9088 25.0027 18.9088 25.0027 18.9088 25.0027C18.9088 25.0027 18.9088 25.0027 18.9088 25.0027C18.9088 25.0027 18.9088 25.0027 18.9088 25.0027C18.9088 25.0027 18.9088 25.0027 18.9088 25.0027C18.9088 25.0027 18.9088 25.0027 18.9088 25.0027C18.9088 25.0027 18.9088 25.0027 18.9088 25.0027C18.9088 25.0027 18.9088 25.0027 18.9088 25.0027C18.9088 25.0027 18.9088 25.0027 18.9088 25.0027C18.9088 25.0027 18.9088 25.0027 18.9088 25.0027C18.9088 25.0027 18.9088 25.0027 18.9088 25.0027C18.9088 25.0027 18.9088 25.0027 18.9088 25.0027C18.9088 25.0027 18.9088 25.0027 18.9088 25.0027C18.9088 25.0027 18.9088 25.0027 18.9088 25.0027C18.9088 25.0027 18.9088 25.0027 18.9088 25.0027C18.9088 25.0027 18.9088 25.0027 18.9088 25.0027C18.9088 25.0027 18.9088 25.0027 18.9088 25.0027C18.9088 25.0027 18.9088 25.0027 18.9088 25.0027C18.9088 25.0027 18.9088 25.0027 18.9088 25.0027C18.9088 25.0027 18.9088 25.0027 18.9088 25.0027C18.9088 25.0027 18.9088 25.0027 18.9088 25.0027C18.9088 25.0027 18.9088 25.0027 18.9088 25.0027C18.9088 25.0027 18.9088 25.0027 18.9088 25.0027C18.9088 25.0027 18.9088 25.0027 18.9088 25.0027C18.9088 25.0027 18.9088 25.0027 18.9088 25.0027C18.9088 25.0027 18.9088 25.0027 18.9088 25.0027C18.9088 25.0027 18.9088 25.0027 18.9088 25.0027C18.9088 25.0027 18.9088 25.0027 18.9088 25.0027C18.9088 25.0027 18.9088 25.0027 18.9088 25.0027C18.9088 25.0027 18.9088 25.0027 18.9088 25.0027C18.9088 25.0027 18.9088 25.0027 18.9088 25.0027C18.9088 25.0027 18.9088 25.0027 18.9088 25.0027C18.9088 25.0027 18.9088 25.0027 18.9088 25.0027C18.9088 25.0027 18.9088 25.0027 18.9088 25.0027C18.9088 25.0027 18.9088 25.0027 18.9088 25.0027C18.9088 25.0027 18.9088 25.0027 18.9088 25.0027C18.9088 25.0027 18.9089 25.0027 18.9089 25.0027C18.9089 25.0027 18.9089 25.0027 18.9089 25.0027C18.9089 25.0027 18.9089 25.0027 18.9089 25.0027C18.9089 25.0027 18.9089 25.0027 18.9089 25.0027C18.9089 25.0027 18.9089 25.0027 18.9089 25.0027C18.9089 25.0027 18.9089 25.0027 18.9089 25.0027C18.9089 25.0027 18.9089 25.0027 18.9089 25.0027C18.9089 25.0027 18.9089 25.0027 18.9089 25.0027C18.9089 25.0027 18.9089 25.0027 18.9089 25.0027C18.9089 25.0027 18.9089 25.0027 18.9089 25.0027C18.9089 25.0027 18.9089 25.0027 18.9089 25.0027C18.9089 25.0027 18.9089 25.0027 18.9089 25.0027C18.9089 25.0027 18.9089 25.0027 18.9089 25.0027C18.9089 25.0027 18.9089 25.0027 18.9089 25.0027C18.9089 25.0027 18.9089 25.0027 18.9089 25.0027C18.9089 25.0027 18.9089 25.0027 18.9089 25.0027C18.9089 25.0027 18.9089 25.0027 18.9089 25.0027C18.9089 25.0027 18.9089 25.0027 18.9089 25.0027C18.9089 25.0027 18.9089 25.0027 18.9089 25.0027C18.9089 25.0027 18.9089 25.0027 18.9089 25.0027C18.9089 25.0027 18.9089 25.0027 18.9089 25.0027C18.9089 25.0027 18.9089 25.0027 18.9089 25.0027C18.9089 25.0027 18.9089 25.0027 18.9089 25.0027C18.9089 25.0027 18.9089 25.0027 18.9089 25.0027C18.9089 25.0027 18.9089 25.0027 18.9089 25.0027C18.9089 25.0027 18.9089 25.0027 18.9089 25.0027C18.9089 25.0027 18.9089 25.0027 18.9089 25.0027C18.9089 25.0027 18.9089 25.0027 18.9089 25.0027C18.9089 25.0027 18.9089 25.0027 18.9089 25.0027C18.9089 25.0027 18.9089 25.0027 18.9089 25.0027C18.9089 25.0027 18.9089 25.0027 18.9089 25.0027C18.9089 25.0027 18.9089 25.0027 18.9089 25.0027C18.9089 25.0027 18.9089 25.0027 18.9089 25.0027C18.9089 25.0027 18.9089 25.0027 18.9089 25.0027C18.9089 25.0027 18.9089 25.0027 18.9089 25.0027C18.9089 25.0027 18.9089 25.0027 18.9089 25.0027C18.9089 25.0027 18.9089 25.0027 18.9089 25.0027C18.9089 25.0027 18.9089 25.0027 18.9089 25.0027C18.9089 25.0027 18.9089 25.0027 18.9089 25.0027C18.9089 25.0027 18.9089 25.0027 18.9089 25.0027C18.9089 25.0027 18.9089 25.0027 18.9089 25.0027C18.9089 25.0027 18.9089 25.0027 18.9089 25.0027C18.9089 25.0027 18.9089 25.0027 18.9089 25.0027C18.9089 25.0027 18.9089 25.0027 18.9089 25.0027C18.9089 25.0027 18.9089 25.0027 18.9089 25.0027C18.9089 25.0027 18.9089 25.0027 18.9089 25.0027C18.9089 25.0027 18.9089 25.0027 18.9089 25.0027C18.9089 25.0027 18.9089 25.0027 18.9089 25.0027C18.9089 25.0027 18.9089 25.0027 18.9089 25.0027C18.9089 25.0027 18.9089 25.0027 18.9089 25.0027C18.9089 25.0027 18.909 25.0027 18.909 25.0027C18.909 25.0027 18.909 25.0027 18.909 25.0027C18.909 25.0027 18.909 25.0027 18.909 25.0027C18.909 25.0027 18.909 25.0027 18.909 25.0027C18.909 25.0027 18.909 25.0027 18.909 25.0027C18.909 25.0027 18.909 25.0027 18.909 25.0027C18.909 25.0027 18.909 25.0027 18.909 25.0027C18.909 25.0027 18.909 25.0027 18.909 25.0027C18.909 25.0027 18.909 25.0027 18.909 25.0027C18.909 25.0027 18.909 25.0027 18.909 25.0027C18.909 25.0027 18.909 25.0027 18.909 25.0027C18.909 25.0027 18.909 25.0027 18.909 25.0027C18.909 25.0027 18.909 25.0027 18.909 25.0027C18.909 25.0027 18.909 25.0027 18.909 25.0027C18.909 25.0027 18.909 25.0027 18.909 25.0027C18.909 25.0027 18.909 25.0027 18.909 25.0027C18.909 25.0027 18.909 25.0027 18.909 25.0027C18.909 25.0027 18.909 25.0027 18.909 25.0027C18.909 25.0027 18.909 25.0027 18.909 25.0027C18.909 25.0027 18.909 25.0027 18.909 25.0027C18.909 25.0027 18.909 25.0027 18.909 25.0027C18.909 25.0027 18.909 25.0027 18.909 25.0027C18.909 25.0027 18.909 25.0027 18.909 25.0027C18.909 25.0027 18.909 25.0027 18.909 25.0027C18.909 25.0027 18.909 25.0027 18.909 25.0027C18.909 25.0027 18.909 25.0027 18.909 25.0027C18.909 25.0027 18.909 25.0027 18.909 25.0027C18.909 25.0027 18.909 25.0027 18.909 25.0027C18.909 25.0027 18.909 25.0027 18.909 25.0027C18.909 25.0027 18.909 25.0027 18.909 25.0027C18.909 25.0027 18.909 25.0027 18.909 25.0027C18.909 25.0027 18.909 25.0027 18.909 25.0027C18.909 25.0027 18.909 25.0027 18.909 25.0027C18.909 25.0027 18.909 25.0027 18.909 25.0027C18.909 25.0027 18.909 25.0027 18.909 25.0027C18.909 25.0027 18.909 25.0027 18.909 25.0027C18.909 25.0027 18.909 25.0027 18.909 25.0027C18.909 25.0027 18.909 25.0027 18.909 25.0027C18.909 25.0027 18.909 25.0027 18.909 25.0027C18.909 25.0027 18.909 25.0027 18.909 25.0027C18.909 25.0027 18.909 25.0027 18.909 25.0027C18.909 25.0027 18.909 25.0027 18.909 25.0027C18.909 25.0027 18.909 25.0027 18.909 25.0027C18.909 25.0027 18.909 25.0027 18.909 25.0027C18.909 25.0027 18.909 25.0027 18.909 25.0027C18.909 25.0027 18.909 25.0027 18.909 25.0027C18.909 25.0027 18.909 25.0027 18.909 25.0027C18.909 25.0027 18.909 25.0027 18.909 25.0027C18.909 25.0027 18.909 25.0027 18.909 25.0027C18.909 25.0027 18.909 25.0027 18.909 25.0027C18.909 25.0027 18.9091 25.0027 18.9091 25.0027C18.9091 25.0027 18.9091 25.0027 18.9091 25.0027C18.9091 25.0027 18.9091 25.0027 18.9091 25.0027C18.9091 25.0027 18.9091 25.0027 18.9091 25.0027C18.9091 25.0027 18.9091 25.0027 18.9091 25.0027C18.9091 25.0027 18.9091 25.0027 18.9091 25.0027C18.9091 25.0027 18.9091 25.0027 18.9091 25.0027C18.9091 25.0027 18.9091 25.0027 18.9091 25.0027C18.9091 25.0027 18.9091 25.0027 18.9091 25.0027C18.9091 25.0027 18.9091 25.0027 18.9091 25.0027C18.9091 25.0027 18.9091 25.0027 18.9091 25.0027C18.9091 25.0027 18.9091 25.0027 18.9091 25.0027C18.9091 25.0027 18.9091 25.0027 18.9091 25.0027C18.9091 25.0027 18.9091 25.0027 18.9091 25.0027C18.9091 25.0027 18.9091 25.0027 18.9091 25.0027C18.9091 25.0027 18.9091 25.0027 18.9091 25.0027C18.9091 25.0027 18.9091 25.0027 18.9091 25.0027C18.9091 25.0027 18.9091 25.0027 18.9091 25.0027C18.9091 25.0027 18.9091 25.0027 18.9091 25.0027C18.9091 25.0027 18.9091 25.0027 18.9091 25.0027C18.9091 25.0027 18.9091 25.0027 18.9091 25.0027C18.9091 25.0027 18.9091 25.0027 18.9091 25.0027C18.9091 25.0027 18.9091 25.0027 18.9091 25.0027C18.9091 25.0027 18.9091 25.0027 18.9091 25.0027C18.9091 25.0027 18.9091 25.0027 18.9091 25.0027C18.9091 25.0027 18.9091 25.0027 18.9091 25.0027C18.9091 25.0027 18.9091 25.0027 18.9091 25.0027C18.9091 25.0027 18.9091 25.0027 18.9091 25.0027C18.9091 25.0027 18.9091 25.0027 18.9091 25.0027C18.9091 25.0027 18.9091 25.0027 18.9091 25.0027C18.9091 25.0027 18.9091 25.0027 18.9091 25.0027C18.9091 25.0027 18.9091 25.0027 18.9091 25.0027V22.7482ZM18.1721 23.0225C16.5905 24.389 14.6511 25.1788 12.5675 25.1788V27.4334C15.2429 27.4334 17.695 26.4143 19.6461 24.7284L18.1721 23.0225ZM12.5675 25.1788C7.49664 25.1788 3.12727 20.3955 3.12727 14.153H0.872727C0.872727 21.3344 5.96586 27.4334 12.5675 27.4334V25.1788ZM3.12727 14.153C3.12727 7.91055 7.49664 3.12727 12.5675 3.12727V0.872727C5.96586 0.872727 0.872727 6.97165 0.872727 14.153H3.12727ZM12.5675 3.12727C14.6511 3.12727 16.5905 3.91705 18.1721 5.28357L19.6461 3.57762C17.6949 1.89175 15.2429 0.872727 12.5675 0.872727V3.12727Z" fill="black" mask="url(#path-1-outside-1_2638_5367)"/>
<ellipse cx="8.69323" cy="9.84421" rx="1.05675" ry="1.2153" fill="black"/>
<path d="M11.5108 19.0142C10.4541 19.8244 7.07245 19.5003 6.22705 16.5836" stroke="black" stroke-width="0.450909"/>
</svg>
