<svg width="37" height="37" viewBox="0 0 37 37" fill="none" xmlns="http://www.w3.org/2000/svg">
<circle cx="18.5002" cy="18.4999" r="6.55208" fill="#FFBB8B" stroke="black" stroke-width="0.770833"/>
<circle cx="16.1873" cy="16.1876" r="0.770833" fill="black"/>
<circle cx="16.1873" cy="16.1876" r="0.770833" fill="black"/>
<circle cx="16.1873" cy="16.1876" r="0.770833" fill="black"/>
<circle cx="16.1873" cy="16.1876" r="0.770833" fill="black"/>
<circle cx="20.8123" cy="16.1876" r="0.770833" fill="black"/>
<circle cx="20.8123" cy="16.1876" r="0.770833" fill="black"/>
<circle cx="20.8123" cy="16.1876" r="0.770833" fill="black"/>
<circle cx="20.8123" cy="16.1876" r="0.770833" fill="black"/>
<path d="M15.4165 18.5C15.6734 19.2708 16.6498 20.8125 18.4998 20.8125C20.3498 20.8125 21.3262 19.2708 21.5832 18.5" stroke="black" stroke-width="0.770833"/>
<path d="M18.5 6.16675V9.25008" stroke="black" stroke-width="0.770833" stroke-linecap="round" stroke-linejoin="round"/>
<path d="M18.5 27.75V30.8333" stroke="black" stroke-width="0.770833" stroke-linecap="round" stroke-linejoin="round"/>
<path d="M9.25 9.25L11.4302 11.4302" stroke="black" stroke-width="0.770833" stroke-linecap="round" stroke-linejoin="round"/>
<path d="M6.1665 18.5H9.24984" stroke="black" stroke-width="0.770833" stroke-linecap="round" stroke-linejoin="round"/>
<path d="M27.75 18.5H30.8333" stroke="black" stroke-width="0.770833" stroke-linecap="round" stroke-linejoin="round"/>
<path d="M11.5625 25.4375L9.25 27.75" stroke="black" stroke-width="0.770833" stroke-linecap="round" stroke-linejoin="round"/>
<path d="M25.4375 11.5625L27.75 9.25" stroke="black" stroke-width="0.770833" stroke-linecap="round"/>
<path d="M25.4375 25.4375L27.75 27.75" stroke="black" stroke-width="0.770833" stroke-linecap="round" stroke-linejoin="round"/>
</svg>
